<svg width="26" height="25" viewBox="0 0 26 25" fill="none" xmlns="http://www.w3.org/2000/svg">
<g clip-path="url(#clip0_367_299)">
<path d="M7.82296 0.087422C6.49296 0.150172 5.58471 0.362422 4.79071 0.674422C3.96896 0.994672 3.27246 1.42442 2.57946 2.11992C1.88646 2.81542 1.45971 3.51242 1.14171 4.33542C0.833959 5.13117 0.625459 6.04017 0.566709 7.37092C0.507959 8.70167 0.494959 9.12942 0.501459 12.5239C0.507959 15.9184 0.522959 16.3439 0.587459 17.6774C0.650959 19.0072 0.862459 19.9152 1.17446 20.7094C1.49521 21.5312 1.92446 22.2274 2.62021 22.9207C3.31596 23.6139 4.01246 24.0397 4.83746 24.3582C5.63246 24.6654 6.54171 24.8749 7.87221 24.9332C9.20271 24.9914 9.63096 25.0049 13.0245 24.9984C16.418 24.9919 16.8452 24.9769 18.1785 24.9137C19.5117 24.8504 20.415 24.6374 21.2095 24.3269C22.0312 24.0054 22.728 23.5769 23.4207 22.8809C24.1135 22.1849 24.54 21.4874 24.8577 20.6639C25.1657 19.8689 25.375 18.9597 25.4327 17.6302C25.491 16.2959 25.5047 15.8699 25.4982 12.4759C25.4917 9.08192 25.4765 8.65642 25.4132 7.32342C25.35 5.99042 25.1382 5.08517 24.8265 4.29042C24.5052 3.46867 24.0765 2.77292 23.381 2.07917C22.6855 1.38542 21.9875 0.959172 21.1642 0.642172C20.3687 0.334422 19.46 0.124672 18.1295 0.067172C16.799 0.00967201 16.3707 -0.00507799 12.976 0.00142201C9.58121 0.00792201 9.15621 0.022422 7.82296 0.087422ZM7.96896 22.6844C6.75021 22.6314 6.08846 22.4289 5.64746 22.2594C5.06346 22.0344 4.64746 21.7624 4.20796 21.3272C3.76846 20.8919 3.49846 20.4744 3.27046 19.8917C3.09921 19.4507 2.89296 18.7897 2.83596 17.5709C2.77396 16.2537 2.76096 15.8582 2.75371 12.5209C2.74646 9.18367 2.75921 8.78867 2.81696 7.47092C2.86896 6.25317 3.07271 5.59067 3.24196 5.14992C3.46696 4.56517 3.73796 4.14992 4.17421 3.71067C4.61046 3.27142 5.02671 3.00092 5.60996 2.77292C6.05046 2.60092 6.71146 2.39642 7.92971 2.33842C9.24796 2.27592 9.64296 2.26342 12.9797 2.25617C16.3165 2.24892 16.7125 2.26142 18.0312 2.31942C19.249 2.37242 19.9117 2.57417 20.352 2.74442C20.9362 2.96942 21.352 3.23967 21.7912 3.67667C22.2305 4.11367 22.5012 4.52842 22.7292 5.11292C22.9015 5.55217 23.106 6.21292 23.1635 7.43192C23.2262 8.75017 23.2405 9.14542 23.2465 12.4819C23.2525 15.8184 23.2407 16.2147 23.183 17.5319C23.1297 18.7507 22.9277 19.4127 22.758 19.8542C22.533 20.4379 22.2617 20.8542 21.8252 21.2932C21.3887 21.7322 20.973 22.0027 20.3895 22.2307C19.9495 22.4024 19.2877 22.6074 18.0705 22.6654C16.7522 22.7274 16.3572 22.7404 13.0192 22.7477C9.68121 22.7549 9.28746 22.7414 7.96921 22.6844M18.1592 5.81917C18.1597 6.11586 18.2482 6.40575 18.4134 6.65216C18.5787 6.89856 18.8133 7.09043 19.0876 7.20349C19.3619 7.31655 19.6636 7.34572 19.9545 7.28732C20.2454 7.22892 20.5124 7.08556 20.7218 6.87538C20.9312 6.6652 21.0736 6.39765 21.1309 6.10655C21.1883 5.81545 21.158 5.51388 21.0439 5.23999C20.9299 4.9661 20.7371 4.73219 20.4901 4.56784C20.2431 4.40349 19.9529 4.31608 19.6562 4.31667C19.2585 4.31747 18.8773 4.4762 18.5966 4.75796C18.3159 5.03971 18.1585 5.42143 18.1592 5.81917ZM6.58171 12.5124C6.58871 16.0574 9.46771 18.9247 13.012 18.9179C16.5562 18.9112 19.4255 16.0324 19.4187 12.4874C19.412 8.94242 16.5322 6.07442 12.9875 6.08142C9.44271 6.08842 6.57496 8.96792 6.58171 12.5124ZM8.83321 12.5079C8.83158 11.6838 9.07436 10.8777 9.53085 10.1916C9.98734 9.50549 10.637 8.97015 11.3978 8.65327C12.1585 8.33639 12.9962 8.25222 13.8048 8.41139C14.6133 8.57057 15.3566 8.96594 15.9404 9.54751C16.5243 10.1291 16.9226 10.8707 17.085 11.6787C17.2474 12.4866 17.1665 13.3246 16.8527 14.0866C16.5388 14.8486 16.006 15.5004 15.3217 15.9596C14.6374 16.4188 13.8323 16.6648 13.0082 16.6664C12.461 16.6676 11.9189 16.5609 11.413 16.3525C10.907 16.1442 10.447 15.8382 10.0593 15.452C9.67161 15.0658 9.36378 14.6071 9.15341 14.1019C8.94303 13.5968 8.83423 13.0551 8.83321 12.5079Z" fill="black"/>
</g>
<defs>
<clipPath id="clip0_367_299">
<rect width="25" height="25" fill="white" transform="translate(0.5)"/>
</clipPath>
</defs>
</svg>
