<svg width="29" height="29" viewBox="0 0 29 29" fill="none" xmlns="http://www.w3.org/2000/svg">
<g clip-path="url(#clip0_307_246)">
<path d="M0.714928 9.43056C-0.868055 5.24823 0.427677 2.70748 2.18218 1.22469C3.7507 -0.103429 4.70752 -0.350905 5.64987 0.482263C6.91253 1.60209 11.5912 7.21978 9.24154 9.68835C8.18967 10.7937 7.78049 11.2866 7.78049 11.2866C8.25373 12.3982 12.1285 17.6467 17.3238 21.1692C17.6276 21.3754 19.3987 19.6843 19.8843 19.4739C20.37 19.2636 20.5353 18.4799 22.7527 19.7008C24.9701 20.9217 30.2812 23.4171 28.7168 25.7598C27.1524 28.1047 26.0819 28.9729 24.7573 28.9605C23.4326 28.9481 18.0761 29.9566 10.2955 22.3364C2.5025 14.7039 1.47129 11.4289 0.714928 9.43056Z" fill="#404040"/>
</g>
<defs>
<clipPath id="clip0_307_246">
<rect width="29" height="29" fill="white"/>
</clipPath>
</defs>
</svg>
